<?xml version="1.0" standalone="no"?>
<!DOCTYPE svg PUBLIC "-//W3C//DTD SVG 20010904//EN" "http://www.w3.org/TR/2001/REC-SVG-20010904/DTD/svg10.dtd">
<svg version="1.0" xmlns="http://www.w3.org/2000/svg"
     width="40px" height="40px" viewBox="0 0 162.000000 121.000000"
     preserveAspectRatio="xMidYMid meet">
    <g transform="translate(0.000000,121.000000) scale(0.100000,-0.100000)"
       fill="#ffffff" stroke="none">
        <path d="M1515 980 c-25 -18 -68 -35 -115 -46 -41 -9 -91 -25 -110 -35 -82
-43 -152 -73 -205 -88 -22 -6 -56 -24 -75 -41 l-35 -29 50 -1 c30 0 60 -7 73
-16 25 -17 29 -16 130 70 24 20 52 36 62 36 10 0 20 7 24 15 3 8 16 15 30 15
38 0 41 18 4 23 -19 2 -6 4 29 5 51 2 61 5 57 17 -5 11 1 15 26 15 17 0 29 4
26 8 -2 4 8 13 24 20 26 12 70 62 53 62 -5 -1 -26 -14 -48 -30z m-275 -150 c0
-11 -42 -30 -63 -30 -17 1 32 40 49 40 8 0 14 -5 14 -10z m-80 -41 c14 -25 14
-25 -30 -33 -24 -4 -29 -3 -15 3 17 7 14 10 -20 16 l-40 8 30 13 c43 19 63 17
75 -7z"/>
        <path d="M227 990 c7 -8 86 -20 195 -31 101 -11 190 -21 198 -23 8 -2 -59 -4
-150 -4 -91 0 -157 2 -147 5 9 2 17 9 17 14 0 12 -211 11 -230 -1 -10 -7 12
-10 72 -10 112 0 132 -7 81 -30 l-38 -17 90 -6 c50 -4 135 -9 190 -11 l100 -5
-80 10 c-162 19 -169 20 -155 29 8 5 17 7 20 5 3 -1 63 -6 133 -9 139 -8 157
-11 157 -32 0 -8 7 -14 15 -14 8 0 15 -4 15 -10 0 -12 -15 -12 -198 0 -81 5
-176 12 -212 14 -51 4 -58 3 -30 -4 19 -5 129 -15 243 -22 l208 -12 15 -35 c8
-20 25 -46 36 -58 13 -13 16 -23 9 -23 -7 0 -9 -4 -6 -10 4 -6 -11 -10 -39
-10 -24 0 -51 -3 -60 -6 -12 -5 -16 0 -16 20 0 18 5 26 18 26 14 0 15 2 2 10
-8 5 -16 5 -18 0 -2 -4 -32 -27 -68 -50 -35 -23 -64 -47 -64 -52 0 -5 4 -7 9
-4 11 7 246 36 286 35 25 0 18 -5 -40 -29 -70 -29 -153 -40 -140 -19 6 9 -97
5 -132 -6 -7 -2 -27 1 -44 7 l-32 11 57 29 c32 16 56 31 54 34 -8 8 -103 -28
-115 -44 -18 -22 -17 -25 16 -50 27 -20 35 -20 117 -12 48 5 93 5 98 1 6 -5
26 -12 44 -16 49 -10 43 -42 -16 -81 -76 -50 -223 -125 -235 -121 -7 2 13 16
43 31 48 23 51 26 21 21 -18 -3 -49 -5 -68 -5 -27 0 -34 -3 -29 -15 3 -8 -2
-19 -12 -24 -15 -9 -14 -10 6 -11 24 0 30 -18 8 -26 -12 -4 -10 -11 7 -31 31
-35 66 -48 81 -28 6 8 43 28 81 45 86 36 74 39 -24 5 -77 -26 -121 -29 -121
-9 0 13 116 43 248 66 39 7 72 15 72 18 0 3 -21 16 -47 29 -43 21 -46 25 -29
35 10 6 31 21 46 34 43 34 50 29 50 -38 0 -51 3 -60 18 -60 17 0 17 4 7 53
-15 67 -24 87 -40 87 -29 0 -25 21 5 26 22 5 40 20 61 51 l31 44 -46 54 c-36
41 -46 61 -46 88 0 31 -6 40 -51 73 -30 22 -46 40 -39 44 6 4 -16 15 -49 25
-32 9 -64 15 -69 11 -9 -6 -203 13 -317 30 -32 5 -38 3 -28 -6z m488 -570 c15
-6 8 -9 -27 -9 -27 -1 -48 4 -48 9 0 12 47 12 75 0z"/>
        <path d="M131 899 c-13 -5 -22 -11 -19 -14 7 -8 108 7 108 16 0 12 -59 10 -89
-2z"/>
        <path d="M165 866 c-46 -14 -86 -35 -69 -36 6 0 31 7 54 15 23 8 45 15 49 15
12 -1 -33 -30 -46 -30 -21 0 -87 -29 -81 -36 3 -3 23 2 43 10 51 21 58 19 15
-4 -48 -26 -10 -26 49 0 49 23 74 26 49 6 -16 -12 -16 -14 8 -24 14 -7 31 -12
39 -12 8 0 15 -4 15 -9 0 -5 16 -19 35 -31 19 -12 35 -28 35 -36 0 -9 4 -13 9
-9 6 3 14 -2 19 -11 6 -10 14 -14 22 -9 10 6 10 9 0 15 -12 7 71 30 168 45 23
4 42 11 42 17 0 5 -8 7 -17 4 -26 -7 -183 -36 -197 -36 -24 1 22 18 94 35 41
10 82 22 91 26 11 6 21 4 29 -6 17 -20 28 -19 26 3 -1 12 8 18 34 21 l35 4
-30 6 c-16 4 -104 -1 -195 -11 -190 -19 -234 -15 -238 23 -2 15 -13 32 -27 39
-13 7 -22 17 -19 22 3 4 4 8 2 7 -2 0 -21 -6 -43 -13z"/>
        <path d="M894 731 c37 -38 46 -39 37 -3 -6 20 -14 28 -37 30 l-29 4 29 -31z"/>
        <path d="M895 681 c-16 -7 -14 -9 14 -14 49 -10 55 -9 41 8 -14 16 -25 18 -55
6z"/>
        <path d="M1000 673 l-35 -15 34 -29 34 -28 -18 -35 c-22 -41 -26 -40 -35 11
-7 34 -8 31 -9 -24 -1 -61 -12 -81 -25 -46 -6 14 -16 8 -56 -32 -27 -27 -48
-50 -46 -52 1 -2 27 6 57 18 53 21 138 99 139 126 0 7 7 16 16 21 21 12 109
-10 133 -32 10 -9 21 -13 24 -9 13 12 7 24 -18 33 -14 5 -25 14 -25 20 0 5 -7
10 -16 10 -8 0 -13 4 -10 8 2 4 0 14 -5 22 -8 13 -12 12 -25 -5 -11 -13 -18
-16 -21 -8 -7 19 -44 63 -51 62 -4 0 -23 -7 -42 -16z"/>
        <path d="M834 515 c10 -10 24 -13 41 -9 44 11 38 24 -10 24 -42 0 -45 -2 -31
-15z"/>
        <path d="M921 403 c-1 -10 -4 -36 -7 -57 -7 -40 19 -111 37 -101 4 3 11 0 16
-7 4 -7 22 -13 38 -13 27 0 30 -3 31 -30 0 -17 4 -36 8 -43 10 -17 26 -15 20
3 -4 8 -3 22 0 31 6 15 8 15 26 -1 11 -10 20 -24 20 -32 0 -8 5 -11 10 -8 31
19 -20 88 -58 79 -18 -5 -52 40 -52 70 0 9 -5 16 -10 16 -6 0 -8 -11 -4 -26 6
-23 4 -25 -16 -22 -13 1 -30 14 -39 28 l-15 25 23 -20 23 -20 -7 63 c-8 69 -1
79 20 30 13 -31 14 -31 14 -8 1 35 -9 46 -46 54 -27 6 -32 4 -32 -11z"/>
        <path d="M710 358 c-36 -23 -74 -42 -85 -44 -11 -1 -38 -9 -60 -17 -36 -13
-38 -15 -19 -25 25 -13 87 -8 149 13 57 20 71 16 80 -24 4 -17 11 -31 16 -31
5 0 9 -11 9 -25 0 -28 2 -29 33 -13 45 23 51 24 74 14 18 -9 23 -19 23 -50 0
-33 2 -37 15 -26 25 21 14 71 -20 89 -19 10 -31 26 -33 41 -2 14 -10 32 -18
40 -12 12 -14 12 -14 -3 0 -24 -17 -21 -32 6 l-12 22 -6 -24 c-7 -30 -30 -40
-30 -13 0 21 29 52 50 52 8 0 1 13 -16 30 -16 16 -31 29 -34 29 -3 0 -34 -19
-70 -41z m68 -5 c-3 -17 -48 -27 -48 -11 0 7 30 24 48 27 2 1 2 -7 0 -16z m92
-93 c24 -15 -11 -44 -44 -36 -37 9 -36 46 2 46 15 0 34 -5 42 -10z"/>
        <path d="M865 360 c-18 -19 -17 -20 2 -20 12 0 23 8 26 20 3 11 2 20 -2 20 -5
0 -16 -9 -26 -20z"/>
        <path d="M967 183 c-6 -10 10 -53 19 -53 3 0 4 9 1 20 -3 11 -1 20 4 20 5 0 9
5 9 10 0 12 -27 14 -33 3z"/>
    </g>
</svg>
